<svg xmlns="http://www.w3.org/2000/svg" viewBox="0 0 1024 992" xml:space="preserve"><path d="M541.343 867.333c-.596.619-.935.986-1.29 1.338-8.653 8.54-10.513 8.412-17.543-1.197-5.767-7.883-11.345-9.155-19.777-4.182-2.847 1.68-5.39 3.894-7.992 5.964-5.384 4.283-8.924 4.298-13.994-.638-6.35-6.182-11.714-13.235-16.537-20.64-7.747-11.89-14.59-24.253-18.928-37.884-1.558-4.895-1.837-9.771-1.292-14.798 4.112-37.912-5.686-71.928-28.85-102.11-3.956-5.152-8.523-9.844-13.775-13.732-7.698-5.699-15.212-3.581-17.96 5.52-1.564 5.182-4.043 4.997-8.1 3.445-18.448-7.055-34.131-17.946-46.68-33.238-1.838-2.24-3.805-4.086-6.606-5.086-39.44-14.085-56.686-45.549-65.258-83.68-3.716-16.528-1.596-32.225 6.44-47.379 7.848-14.801 10.754-30.41 3.702-46.562 2.237-1.294 3.405.298 4.619 1.184 6.432 4.696 10.344 11.175 12.838 18.607.953 2.839 1.803 5.713 2.807 8.533.504 1.415 1.2 3.018 3.082 2.683 1.778-.317 2.144-2.053 2.259-3.511.17-2.145.402-4.412-.089-6.46-4.38-18.288-14.546-32.41-31.217-41.296-9.904-5.28-15.086-3.705-21.786 5.253-9.19 12.289-21.139 12.868-32.305 2.02-16.39-15.922-26.813-35.527-35.42-56.278-8.711-21.006-14.785-42.776-17.628-65.353-1.015-8.06-1.624-16.246-.22-24.368.44-2.55.74-5.246 2.876-7.539 2.518 4.331 1.387 8.98 1.869 13.314 1.958 17.616 9.729 32.732 19.565 46.997 8.533 12.375 17.925 24.048 29.063 34.216 6.84 6.245 14.357 11.397 23.502 13.671 5.71 1.42 10.177-.588 12.965-5.757 2.006-3.718 3.033-7.728 3.223-11.956.12-2.661.171-5.335.473-7.978.997-8.725 4.458-10.424 11.826-5.289 10.625 7.405 18.79 17.382 27.202 27.075 2.336 2.692 4.105 5.992 7.801 7.992 1.024-3.619-.694-6.428-1.54-9.28-5.498-18.567-10.554-37.217-9.953-56.825.317-10.35 2.182-20.513 4.642-30.56.26-1.062.24-2.4 2.193-2.868 1.319 2.598 1.244 5.61 1.517 8.382 1.121 11.38 5.098 21.682 11.303 31.153 4.345 6.632 10.1 11.367 18.591 10.26 8.615-1.122 13.337-6.98 15.786-14.835 1.123-3.603 2.448-7.252.998-11.192-2.029-5.512-5.467-6.533-9.803-2.714-.873.768-1.64 1.656-2.457 2.49-5.069 5.172-8.685 4.685-11.578-2.045-3.298-7.673-3.712-15.918-2.804-24.06 4.215-37.772 18.79-71.581 40.34-102.509 8.74-12.545 20.371-21.929 34.746-27.583 1.934-.76 3.902-2.014 6.153-1.11 1.148 1.35.01 2.585-.08 3.833-.19 2.632.002 5.097 2.727 6.406 2.544 1.221 4.899.58 6.954-1.18 3.922-3.357 6.241-7.78 7.862-12.554 6.863-20.207 4.88-40-2.962-59.49a72 72 0 0 1-1.55-4.193c-.073-.222.23-.57.389-.928 2.38-.213 2.86 1.948 3.888 3.263 15.115 19.339 23.84 41.146 24.314 65.809.244 12.713-.513 25.359-9.986 35.593-3.667 3.962-5.535 9.077-6.273 14.488-.315 2.303-.606 4.628 1.135 7.282 11.397-6.293 21.782-14.395 34.089-18.896 1.49 2.503-.108 3.94-.847 5.455-6.599 13.531-10.364 27.943-10.385 42.85-.027 19.453 5.668 37.448 18.109 52.814 6.428 7.94 13.118 7.68 18.404-1.041 7.706-12.716 11.661-26.079 4.814-40.696-2.983-6.368-.687-12.757.732-19.053 4.303-19.095 11.887-36.38 27.33-49.323 7.322-6.136 15.329-10.954 24.312-13.667 1.245 1.225.679 1.984.148 2.551-20.124 21.53-18.411 60.437 2.721 84.466 8.135 9.25 16.8 18.04 25.407 26.86 2.66 2.727 5.24 6.503 10.157 4.245 4.366-2.004 7.196-7.473 6.616-12.97-1.976-18.698 2.197-36.03 11.678-52.144 3.241-5.508 7.335-10.324 12.707-13.913 1.628-1.087 3.237-2.368 5.33-2.142 1.846 1.679.963 3.496.652 5.228-.718 3.992-.653 7.927.486 11.858 1.61 5.555 5.597 8.804 11.184 8.943 5.637.14 9.387-2.384 11.001-8.228 3.085-11.166 1.16-21.811-4.465-31.763-2.038-3.605-4.448-7.094-7.196-10.184-6.41-7.207-8.687-15.523-7.879-24.957 2.277-26.595 11.321-50.21 30.41-69.423 1.353-1.362 2.463-3.17 4.755-3.408 1.16 2.178-.292 3.936-.88 5.692-5.233 15.6-8.048 31.588-7.75 48.056.1 5.652.643 11.317 2.08 16.809 2.067 7.905 5.843 14.727 12.269 20.12 11.116 9.33 22.17 18.82 28.686 32.243 12.924 26.622 16.394 54.238 8.252 82.95-1.017 3.588-1.557 7.127-1.362 10.827.156 2.95 1.321 5.22 4.246 6.1 3.156.95 6.082.308 7.96-2.548 1.358-2.067 2.34-4.4 3.343-6.68 10.644-24.204 30.294-36.74 55.115-42.575.59-.138 1.256.052 1.818.084.714 2.098-1.037 2.382-1.903 3.202-19.348 18.31-28.913 39.965-22.871 66.936 1.105 4.932 3.435 9.388 5.92 13.722 3.378 5.893 7.682 11.298 8.675 17.933 2.363.9 3.368-.459 4.44-1.391 13.056-11.358 27.904-17.746 45.37-19.82 37.077-4.4 62.209-25.027 76.059-59.59 4.848-12.098 8.712-24.458 10.46-37.422.186-1.374-.003-3.063 2.095-3.881 1.833 3.09 1.95 6.532 2.174 9.926 1.46 22.164-3.888 42.982-12.816 63.006-5.16 11.571-11.168 22.723-18.162 33.316-4.89 7.406-7.87 15.293-7.234 24.422.518 7.433-3.566 12.465-9.547 16.39-9.123 5.984-19.366 8.65-29.871 10.759-7.17 1.44-14.403 2.782-21.134 5.799-2.72 1.219-5.33 2.738-7.846 4.346-2.006 1.282-3.709 3.002-3.228 5.73.441 2.5 2.507 3.529 4.582 4.12 3.516 1.004 7.11 1.75 10.7 2.47 3.549.714 6.708 2.054 8.889 5.07 2.09 2.89 4.649 3.148 7.92 2.168 6.65-1.994 12.489-5.435 18.14-9.318 1.75-1.202 3.215-2.919 5.659-3.318 1.15 1.992-.524 3.108-1.413 4.238-21.84 27.76-47.07 51.718-78.156 68.976-3.8 2.11-5.59 4.487-5.41 8.995.586 14.652 3.118 29.084 4.493 43.64 1.342 14.2.887 28.271-4.457 41.804-5.057 12.805-14.305 21.02-27.312 25.144-10.011 3.174-20.073 6.239-28.612 12.692-6.521 4.928-12.235 10.733-13.62 19.078-1.69 10.18-7.03 17.622-14.784 24.018-8.051 6.64-16.624 12.222-26.438 15.81-2.344.858-4.739 1.542-7.298 1.506-5.379-.077-7.368-2.713-5.534-7.687.918-2.49 2.29-4.812 3.251-7.29 1.28-3.304 1.418-6.607-1.474-9.213-2.719-2.449-5.871-2.792-9.312-1.484-6.852 2.607-11.71 7.803-15.958 13.286-17.157 22.142-29.517 46.676-35.36 74.237-1.631 7.694-1.91 15.452-1.018 23.342 2.16 19.115-4.636 36.008-13.613 52.297-4.295 7.795-9.943 14.57-15.91 21.562m62.9-512.568c-6.388 14.153-6.829 29.378-7.901 44.465-.97 13.637-3.42 26.8-11.664 38.143-6.786 9.337-14.787 17.309-26.569 19.934-10.45 2.33-17.005-4.322-14.972-14.741 1.33-6.821 4.253-12.907 7.902-18.755 4.931-7.904 10.303-15.617 12.649-24.832.408-1.604 1.821-3.32.233-5.02-1.333-.087-1.887.844-2.435 1.62-4.234 6.002-9.15 11.445-13.809 17.103-12.395 15.053-17.634 32.14-14.57 51.657.768 4.9 1.17 10.136-.299 14.902-4.618 14.982-7.946 30.266-11.524 45.5-1.554 6.617-6.835 11.06-10.447 16.764-2.807-69.173-.942-138.147-1.732-207.158-1.944 1.073-2.376 2.652-2.94 4.184-3.756 10.193-7.983 20.261-14.463 28.976-5.21 7.006-5.273 13.223-.152 19.923.804 1.052 1.422 2.255 2.055 3.427 6.522 12.082 9.741 24.764 6.62 38.478-2.407 10.58-6.551 20.374-14.865 27.724-8.793 7.774-20.353 5.003-24.962-5.781-2.352-5.505-2.473-11.378-1.961-17.197 1.022-11.632-1.84-22.106-8.643-31.556-5.584-7.756-12.219-14.544-19.399-20.789-10.194-8.865-20.703-17.412-26.88-29.886-.174-.351-.78-.488-1.334-.81-1.302 1.455-.885 3.199-1.137 4.777-1.195 7.493-.452 15.002.35 22.418 1.238 11.438 3.431 22.734 8.878 33.077 1.037 1.969 1.933 4.816 4.883 4.136 2.875-.663 2.513-3.492 2.73-5.803.375-3.997-1.127-7.747-1.899-11.579 2.46-.598 3.548.929 4.704 1.966 8.793 7.888 15.175 17.645 21.156 27.689 1.144 1.92 1.191 3.974.64 6.245-3.371 13.923.226 26.401 9.818 36.513 12.368 13.039 18.526 28.682 21.557 45.842 2.708 15.333 1.293 30.26-6.655 44.024-3.509 6.075-4.135 6.092-10.058 2.635-4.948-2.889-9.858-5.841-14.785-8.765l-1.57.919c16.64 51.758 32.124 103.783 38.201 158.044-1.135-.763-1.78-1.681-2.128-2.701-4.903-14.37-11.205-28.154-17.423-41.978-9.92-22.052-24.22-40.144-46.127-51.434-6.305-3.248-12.59-6.532-19.13-9.926-1.762 12.599-6.426 15.79-18.77 13.238-4.056-.84-8.113-2.022-11.93-3.62-25.776-10.79-43.593-28.32-48.145-57.115-.372-2.356.177-5.26-1.957-7.47-2.503 2.395-2.601 5.325-2.986 8.048-2.977 21.093.32 41.226 10.195 60.067 7.07 13.49 15.519 26.024 27.953 35.403 5.768 4.351 11.898 5.655 18.8 3.69 3.7-1.052 7.455-1.664 11.332-1.658 12.943.023 22.808 6.75 31.822 14.91 30.89 27.964 45.053 63.842 47.466 104.555.961 16.215 7.338 28.699 19.075 39.079 6.471 5.722 13.868 9.15 22.75 8.55 5.525-.372 8.893-3.12 10.358-8.48 2.345-8.58-1.755-17.26-10.125-20.727-5.561-2.303-8.95-6.24-10.273-11.983-3.126-13.568 4.436-24.387 18.451-26.56 4.115-.637 8.278-1.11 12.31-2.097 12.334-3.023 22.734-9.318 31.143-18.82-1.832.414-3.467 1.193-5.159 1.816-4.989 1.837-9.925 4.038-15.474 2.576-4.995-1.315-7.09-4.73-5.977-9.728.454-2.034 1.838-3.86 1.63-6.287-6.948.178-12.072 4.58-17.519 7.231-1.638-1.993-1.262-3.55-1.252-5.003.324-49.148-.3-98.303.962-147.445.242-9.419 2.618-18.081 8.421-25.65 4.9-6.389 10.523-12.018 17.176-16.596 14.81-10.192 31.145-18.019 45.096-29.575 17.528-14.52 32.983-30.597 41.67-52.126 1.584-3.926 3.496-7.81 3.152-12.26-7.454-.256-11.086-4.415-10.393-12.186.834-9.358 4.766-16.94 13.604-21.26 5.41-2.644 10.473-5.804 15.181-9.575 6.59-5.278 10.075-12.333 11.642-20.388 1.051-5.402-2.096-8.211-7.485-7.17-4.096.79-6.692-1.255-7.107-5.053-1.327-12.156.65-23.341 10.998-31.464 4.39-3.447 6.921-7.952 8.393-13.252 3.608-12.994 2.99-26.043.743-39.131-.099-.58-.24-1.364-1.575-.87.239 3.37-.413 6.802-1.117 10.202-3.832 18.519-11.672 34.056-30.937 40.93-10.145 3.621-17.068 10.715-22.084 20.88m88.974 131.72c-5.227.117-9.192 3.712-13.976 5.069-4.747 1.347-8.223-.33-9.814-4.968-1.497-4.363-.539-8.55 1.088-12.654 3.144-7.928 7.098-15.415 12.071-22.365.998-1.394 2.667-2.543 2.399-4.745-2.297-.217-3.71 1.383-5.299 2.411-18.017 11.662-33.158 26.139-43.976 44.885-2.155 3.734-4.314 7.544-7.574 10.498-4.935 4.473-9.787 3.188-11.83-3.168-.662-2.063-.993-4.232-1.665-7.178-24.714 35.979-35.392 75.449-38.655 117.724.57-.327.779-.372.826-.484.516-1.228 1.111-2.436 1.487-3.707 2.851-9.641 9.167-15.543 18.906-18.009 3.54-.896 6.942-2.321 10.423-3.456 2.44-.794 4.864-3.465 7.38-1.69 2.588 1.83-.755 4.515-.14 6.876 17.166-6.686 40.999-40.653 36.832-52.782-1.148.713-2.242 1.428-3.37 2.087-2.542 1.486-5.494 2.817-7.761.331-2.147-2.352.12-4.804 1.61-6.642 13.523-16.67 30.384-27.28 52.43-27.73 9.245-.19 12.142 4.072 9.67 13.076-.16.584-.097 1.23-.138 1.852 10.289.522 38.88-20.123 41.87-30.522-6.259 3.166-11.9 6.712-18.333 8.491-10.773 2.979-20.146 1.619-26.906-8.299-1.675-2.458-4.02-3.928-7.555-4.9m-308.346-23.842c6.865 9.928 15.114 18.604 24.236 26.448 6.578 5.656 13.588 10.773 21.343 14.706 6.254 3.172 9.046 1.43 9.193-5.524.137-6.483.228-12.962-.976-19.405-2.005-10.74-5.326-20.97-11.434-30.108-3.297-4.931-7.453-4.655-10.462.485-1.853 3.166-1.593 6.725-1.823 10.208-.134 2.034.898 4.33-1.182 6.254-.543-.41-1.225-.683-1.516-1.183-2.173-3.74-4.565-7.391-6.343-11.317-16.734-36.948-20.05-75.528-13.676-115.228 3.741-23.3 10.855-45.617 19.824-67.389.619-1.5 2.382-3.025.705-4.918-3.228.941-3.215.957-5.224 2.576-13.014 10.484-23.299 23.267-31.465 37.762-11.037 19.591-15.275 40.85-16.315 63.174-1.568 33.694 5.948 64.708 25.115 93.459M701.01 615.517c14.472-14.805 24.796-35.827 22.642-46.746-3.956 4.837-7.6 9.591-12.037 13.604-12.601 11.398-27.161 16.954-44.334 15.18-6.417-.663-12.862-1.354-19.104 1.728-11.197 5.53-18.412 14.59-23.437 25.626-3.973 8.726-7.157 17.73-8.07 27.459 1.336-1.09 2.37-2.328 3.285-3.649 6.576-9.496 14.022-18.218 23.147-25.361 6.714-5.256 13.803-9.953 22.254-12.002 9.929-2.407 14.353 1.786 12.673 11.86-.365 2.191-1.551 4.283-1.121 7.076 9.234-3.079 16.775-8.069 24.102-14.775m-313.974-86.031c-4.22-2.903-8.099-6.428-13.026-8.242-1.1 2.237-.33 3.395.096 4.635 1.778 5.183 3.953 10.282 5.163 15.598 3.867 16.99 14.135 28.549 29.38 36.275 7.883 3.995 15.362 8.655 21.626 15.028.514.523 1.06 1.348 2.26.607-7.681-26.311-23.392-46.938-45.499-63.901"/></svg>